<svg width="150" height="150" viewBox="0 0 110 157" fill="none" xmlns="http://www.w3.org/2000/svg">
<path d="M23.8838 154H83.8838" stroke="#E84343" stroke-width="6" stroke-linecap="round" stroke-linejoin="round"/>
<path d="M87.3875 54.001C87.6657 72.639 72.5271 88.1411 53.8875 88.001C35.3844 87.8619 20.6113 72.5025 20.8875 54.001C21.1595 35.7776 35.6626 21.138 53.8875 21.001C72.2509 20.8629 87.1134 35.639 87.3875 54.001Z" stroke="#E84343" stroke-width="6"/>
<path d="M53.8836 150.5L82.3836 99C82.3836 99 103.789 85.0008 106.384 61C109.303 34 90.3836 2.99996 53.8836 3C15.8836 3.00004 -1.22744 38.5 3.88374 66.5C7.5787 86.7413 26.8836 99 26.8836 99L53.8836 150.5Z" stroke="#E84343" stroke-width="6"/>
<path d="M61.8838 111L53.8838 128" stroke="#E84343" stroke-width="6" stroke-linecap="round" stroke-linejoin="round"/>
<circle cx="66.8838" cy="101" r="3" fill="#E84343"/>
<path fill-rule="evenodd" clip-rule="evenodd" d="M54.5984 41.5484C53.1349 39.7847 51.1999 38.4828 49.0816 37.7393C44.5503 36.1488 39.0076 37.0349 35.126 41.2741C31.1182 45.6511 30.2915 50.464 31.5303 55.0305C32.7041 59.3571 35.6606 63.2415 38.7527 66.3747C41.8886 69.5524 45.422 72.2138 48.1343 74.0648C49.4983 74.9956 50.6726 75.7336 51.5109 76.2417C51.9303 76.496 52.2667 76.6933 52.5017 76.829C52.6192 76.8969 52.7115 76.9494 52.7762 76.986L52.8524 77.0289L52.8746 77.0412L52.8815 77.0451L52.884 77.0464C52.8844 77.0466 52.8848 77.0469 53.0076 76.8256C53.0078 76.8257 53.008 76.8259 53.0082 76.8261L52.8858 77.0474C53.3781 77.3197 53.9137 77.439 54.4378 77.421C55.0549 77.5046 55.7032 77.3974 56.29 77.0728L56.1478 76.8157C56.148 76.8156 56.1481 76.8154 56.1483 76.8153C56.2909 77.0723 56.2913 77.0721 56.2917 77.0718L56.2942 77.0705L56.3012 77.0666L56.3233 77.0542L56.3995 77.0114C56.4643 76.9748 56.5565 76.9223 56.6741 76.8544C56.9091 76.7187 57.2454 76.5214 57.6649 76.2671C58.5031 75.759 59.6774 75.021 61.0414 74.0901C63.7537 72.2392 67.2872 69.5778 70.4231 66.4001C73.5151 63.2669 76.4716 59.3825 77.6454 55.0559C78.8843 50.4894 78.0575 45.6765 74.0497 41.2995C70.1682 37.0603 64.6254 36.1742 60.0942 37.7647C57.986 38.5047 56.0594 39.7976 54.5984 41.5484ZM54.4343 52.3045C54.4023 52.3055 54.3701 52.306 54.3379 52.306C52.681 52.306 51.3379 50.9629 51.3379 49.306C51.3379 46.3647 49.5432 44.2602 47.0944 43.4007C44.6258 42.5342 41.669 43.0131 39.5512 45.3259C36.9586 48.1574 36.6101 50.839 37.321 53.4595C38.097 56.3199 40.2154 59.315 43.0233 62.1602C45.7873 64.961 48.9787 67.377 51.5164 69.1088C52.7707 69.9647 53.8477 70.6418 54.6088 71.1033C55.3672 70.6425 56.4279 69.9746 57.6593 69.1342C60.197 67.4024 63.3885 64.9864 66.1525 62.1856C68.9603 59.3404 71.0787 56.3453 71.8547 53.4849C72.5656 50.8644 72.2171 48.1828 69.6245 45.3513C67.5068 43.0385 64.5499 42.5596 62.0814 43.426C59.6326 44.2856 57.8379 46.3901 57.8379 49.3314C57.8379 50.9883 56.4947 52.3314 54.8379 52.3314C54.701 52.3314 54.5663 52.3223 54.4343 52.3045Z" fill="#E84343"/>
</svg>
